{"title":"Final.Destination.5.2011.BRRIP.720P.H264-ZEKTORM","uid":6892336,"size":3235692593,"categoryP":"video","categoryS":"hd___movies","magnet":"?xt=urn:btih:82c6b6f5a3cb4861c07ce860432d55fc9b4a93c2&amp;dn=Final.Destination.5.2011.BRRIP.720P.H264-ZEKTORM&amp;tr=udp%3A%2F%2Ftracker.openbittorrent.com%3A80&amp;tr=udp%3A%2F%2Fopen.demonii.com%3A1337&amp;tr=udp%3A%2F%2Ftracker.coppersurfer.tk%3A6969&amp;tr=udp%3A%2F%2Fexodus.desync.com%3A6969","seeders":0,"leechers":1,"uploader":"blowley","files":4,"time":1324060752,"description":"Title                            : Final Destination 5\nYear                             : 2011\nGenre                            : Horror | Thriller\niMDB URL                         : http://www.imdb.com/title/tt1622979/\n\nComplete name                    : Final.Destination.5.2011.BRRIP.720P.H264-ZEKTORM.mp4\nFormat                           : MPEG-4\nFormat profile                   : Base Media\nCodec ID                         : isom\nFile size                        : 3.01 GiB\nDuration                         : 1h 31mn\nOverall bit rate                 : 4697 Kbps\nSubtitles                        : English (Format: srt)\n\nVideo\nID                               : 1\nFormat                           : AVC\nFormat/Info                      : Advanced Video Codec\nFormat profile                   : &lt;a class=&quot;__cf_email__&quot; href=&quot;/cdn-cgi/l/email-protection&quot; data-cfemail=&quot;6d25040a052d2159435c&quot;&gt;[email&amp;#160;protected]&lt;/a&gt;&lt;script cf-hash='f9e31' type=&quot;text/javascript&quot;&gt;\n/* &lt;![CDATA[ */!function(){try{var t=&quot;currentScript&quot;in document?document.currentScript:function(){for(var t=document.getElementsByTagName(&quot;script&quot;),e=t.length;e--;)if(t[e].getAttribute(&quot;cf-hash&quot;))return t[e]}();if(t&amp;&amp;t.previousSibling){var e,r,n,i,c=t.previousSibling,a=c.getAttribute(&quot;data-cfemail&quot;);if(a){for(e=&quot;&quot;,r=parseInt(a.substr(0,2),16),n=2;a.length-n;n+=2)i=parseInt(a.substr(n,2),16)^r,e+=String.fromCharCode(i);e=document.createTextNode(e),c.parentNode.replaceChild(e,c)}}}catch(u){}}();/* ]]&gt; */&lt;/script&gt;\nFormat settings, CABAC           : Yes\nFormat settings, ReFrames        : 5 frames\nCodec ID                         : avc1\nCodec ID/Info                    : Advanced Video Coding\nDuration                         : 1h 31mn\nBit rate mode                    : Variable\nBit rate                         : 4257 Kbps\nWidth                            : 1280 pixels\nHeight                           : 528 pixels\nDisplay aspect ratio             : 2.424\nFrame rate mode                  : Constant\nFrame rate                       : 23.976 fps\nResolution                       : 24 bits\nColorimetry                      : 4:2:0\nScan type                        : Progressive\nBits/(Pixel*Frame)               : 0.263\nStream size                      : 2.73 GiB (91%)\nTitle                            : Video\nWriting library                  : x264\n\nAudio\nID                               : 2\nFormat                           : AAC\nFormat/Info                      : Advanced Audio Codec\nFormat version                   : Version 4\nFormat profile                   : LC\nFormat settings, SBR             : No\nCodec ID                         : 40\nDuration                         : 1h 31mn\nBit rate mode                    : Variable\nBit rate                         : 437 Kbps\nMaximum bit rate                 : 529 Kbps\nChannel(s)                       : 6 channels\nChannel positions                : Front: L C R, Rear: L R, LFE\nSampling rate                    : 48.0 KHz\nResolution                       : 16 bits\nStream size                      : 287 MiB (9%)\nLanguage                         : English\n\n\nScreenshots:\n\n[img]http://img859.imageshack.us/img859/9186/snapfd1.png[/img]\n\n[img]http://img855.imageshack.us/img855/3664/snapfd2.png[/img]\n\n[img]http://img542.imageshack.us/img542/8673/snapfd3.png[/img]\n","torrent":{"xt":"urn:btih:82c6b6f5a3cb4861c07ce860432d55fc9b4a93c2","amp;dn":"Final.Destination.5.2011.BRRIP.720P.H264-ZEKTORM","amp;tr":["udp%3A%2F%2Ftracker.openbittorrent.com%3A80","udp%3A%2F%2Fopen.demonii.com%3A1337","udp%3A%2F%2Ftracker.coppersurfer.tk%3A6969","udp%3A%2F%2Fexodus.desync.com%3A6969"],"infoHash":"82c6b6f5a3cb4861c07ce860432d55fc9b4a93c2","infoHashBuffer":{"type":"Buffer","data":[130,198,182,245,163,203,72,97,192,124,232,96,67,45,85,252,155,74,147,194]},"announce":[],"urlList":[]}}